<svg width="10" height="21" viewBox="0 0 10 21" fill="none" xmlns="http://www.w3.org/2000/svg">
<path d="M4.86947 20.46C4.39875 20.46 3.94713 20.2628 3.63013 19.9188C3.31313 19.5749 3.1565 19.1117 3.20012 18.6482L3.5782 14.0428H1.84819C1.10492 14.0424 0.5 13.4445 0.5 12.7089V8.34478C0.5 6.52269 1.04302 4.76018 2.07047 3.24793L3.42988 1.24667C3.74771 0.779026 4.27702 0.5 4.84662 0.5C5.41623 0.5 5.94595 0.779026 6.26337 1.24667L7.62278 3.24793C8.65023 4.76018 9.19324 6.52269 9.19324 8.34478V12.7089C9.19324 13.4441 8.58832 14.0424 7.84505 14.0424H6.16074L6.53924 18.6515C6.58244 19.1113 6.42581 19.5744 6.10881 19.9184C5.79181 20.2628 5.33978 20.46 4.86947 20.46ZM4.84662 1.11682C4.47976 1.11682 4.15154 1.28982 3.94713 1.59104L2.58772 3.5923C1.62966 5.00222 1.1232 6.64597 1.1232 8.34519V12.7093C1.1232 13.1047 1.44851 13.4264 1.84819 13.4264H3.91597C4.00281 13.4264 4.0859 13.4626 4.1449 13.5259C4.20389 13.5892 4.23339 13.6738 4.22633 13.7597L3.82083 18.702C3.79258 19.0012 3.88855 19.2847 4.09089 19.5042C4.2928 19.7236 4.5695 19.8444 4.86947 19.8444C5.16944 19.8444 5.44614 19.7236 5.64806 19.5042C5.84998 19.2847 5.94595 19.0012 5.91853 18.7057L5.51262 13.7597C5.50555 13.6738 5.53505 13.5892 5.59405 13.5259C5.65304 13.4626 5.73614 13.4264 5.82297 13.4264H7.84505C8.24473 13.4264 8.57004 13.1047 8.57004 12.7093V8.34519C8.57004 6.64597 8.06359 5.00263 7.10552 3.59189L5.74611 1.59063C5.5417 1.28941 5.21348 1.11682 4.84662 1.11682Z" fill="#7E8190"/>
<path fill-rule="evenodd" clip-rule="evenodd" d="M3.94713 1.59104L2.58772 3.5923C1.62966 5.00222 1.1232 6.64597 1.1232 8.34519V12.7093C1.1232 13.1047 1.44851 13.4264 1.84819 13.4264H3.91597C4.00281 13.4264 4.0859 13.4626 4.1449 13.5259C4.20389 13.5892 4.23339 13.6738 4.22633 13.7597L3.82083 18.702C3.79258 19.0012 3.88855 19.2847 4.09089 19.5042C4.2928 19.7236 4.5695 19.8444 4.86947 19.8444C5.16944 19.8444 5.44614 19.7236 5.64806 19.5042C5.84998 19.2847 5.94595 19.0012 5.91853 18.7057L5.51262 13.7597C5.50555 13.6738 5.53505 13.5892 5.59405 13.5259C5.65304 13.4626 5.73614 13.4264 5.82297 13.4264H7.84505C8.24473 13.4264 8.57004 13.1047 8.57004 12.7093V8.34519C8.57004 6.64597 8.06359 5.00263 7.10552 3.59189L5.74611 1.59063C5.5417 1.28941 5.21348 1.11682 4.84662 1.11682C4.47976 1.11682 4.15154 1.28982 3.94713 1.59104ZM6.69189 3.87279L5.33251 1.87158C5.22227 1.70914 5.04976 1.61682 4.84662 1.61682C4.64388 1.61682 4.47132 1.70904 4.36086 1.8718L3.00133 3.87325C2.0994 5.20055 1.6232 6.74652 1.6232 8.34519V12.7093C1.6232 12.8234 1.71947 12.9264 1.84819 12.9264H3.91597C4.14133 12.9264 4.35694 13.0201 4.51062 13.1849C4.6651 13.3506 4.74331 13.5737 4.72465 13.8007L4.31865 18.749C4.30373 18.907 4.35244 19.0502 4.45848 19.1652C4.56495 19.281 4.70819 19.3444 4.86947 19.3444C5.03075 19.3444 5.17365 19.2813 5.28012 19.1656C5.38669 19.0498 5.43495 18.9059 5.42067 18.7519L5.42017 18.7466L5.0143 13.8007M5.0143 13.8007C4.99566 13.5738 5.07386 13.3506 5.22832 13.1849C5.38201 13.0201 5.59761 12.9264 5.82297 12.9264H7.84505C7.97377 12.9264 8.07004 12.8234 8.07004 12.7093V8.34519C8.07004 6.74658 7.59389 5.20101 6.69189 3.87279C6.69188 3.87278 6.6919 3.87281 6.69189 3.87279M1.84792 14.5428C0.834053 14.5423 0 13.7259 0 12.7089V8.34478C0 6.42215 0.573311 4.56182 1.65686 2.96698C1.65687 2.96697 1.65686 2.967 1.65686 2.96698L3.01627 0.965722C3.42798 0.359956 4.11283 0 4.84662 0C5.58016 0 6.26552 0.359655 6.67697 0.965721M6.67697 0.965721L8.03635 2.96694C8.03636 2.96696 8.03634 2.96693 8.03635 2.96694C9.1199 4.56178 9.69324 6.42215 9.69324 8.34478V12.7089C9.69324 13.7254 8.85928 14.5424 7.84505 14.5424H6.70349L7.03733 18.6078C7.09291 19.2089 6.88811 19.8105 6.47668 20.257C6.06426 20.7051 5.47847 20.96 4.86947 20.96C4.26003 20.96 3.67479 20.705 3.26247 20.2577C2.8505 19.8107 2.64607 19.2088 2.70203 18.6045L3.03547 14.5428H1.84792M3.5782 14.0428L3.20012 18.6482C3.1565 19.1117 3.31313 19.5749 3.63013 19.9188C3.94713 20.2628 4.39875 20.46 4.86947 20.46C5.33978 20.46 5.79181 20.2628 6.10881 19.9184C6.42581 19.5744 6.58244 19.1113 6.53924 18.6515L6.16074 14.0424H7.84505C8.58832 14.0424 9.19324 13.4441 9.19324 12.7089V8.34478C9.19324 6.52269 8.65023 4.76018 7.62278 3.24793L6.26337 1.24667C5.94595 0.779026 5.41623 0.5 4.84662 0.5C4.27702 0.5 3.74771 0.779026 3.42988 1.24667L2.07047 3.24793C1.04302 4.76018 0.5 6.52269 0.5 8.34478V12.7089C0.5 13.4445 1.10492 14.0424 1.84819 14.0428H3.5782Z" fill="#7E8190"/>
</svg>
