<svg width="16" height="20" viewBox="0 0 16 20" fill="none" xmlns="http://www.w3.org/2000/svg">
<path d="M13.2429 4.1774L13.2429 4.17737L12.7388 3.09089L12.7388 3.09077L12.8612 3.03396C12.7971 2.89621 12.8579 2.73282 12.9964 2.66944L13.2429 4.1774ZM13.2429 4.1774C13.7022 5.16706 13.945 6.26724 13.945 7.35729V17.4924C13.945 17.7193 14.1298 17.9022 14.3562 17.9022C14.5824 17.9022 14.7674 17.7194 14.7674 17.4928V7.35765C14.7674 6.1492 14.4983 4.93074 13.9893 3.83368L13.8668 3.89049L13.9893 3.83367L13.4853 2.74722C13.4853 2.7472 13.4852 2.74718 13.4852 2.74716L13.2429 4.1774Z" fill="#7B7F8F" stroke="#7B7F8F" stroke-width="0.27"/>
<path d="M2.41089 3.83328L2.41089 3.83328C1.90186 4.9307 1.63282 6.14878 1.63282 7.35725V17.4924C1.63282 17.7193 1.81763 17.9022 2.04399 17.9022C2.27034 17.9022 2.45515 17.7193 2.45515 17.4924V7.35725C2.45515 6.2672 2.69795 5.16703 3.15732 4.17736L3.15734 4.17732L3.66143 3.09035L3.66149 3.09022C3.75673 2.88429 3.66611 2.64118 3.46029 2.54641L3.46002 2.54629C3.2544 2.45216 3.01057 2.54116 2.91504 2.74655L2.91498 2.74667L2.41089 3.83328Z" fill="#7B7F8F" stroke="#7B7F8F" stroke-width="0.27"/>
<path d="M1.69304 18.3154H14.7068C14.6237 18.0672 14.3948 17.9018 14.1294 17.9018H12.8321C12.6058 17.9018 12.421 17.7189 12.421 17.492C12.421 17.2652 12.6058 17.0823 12.8321 17.0823H14.1294C14.7647 17.0823 15.3164 17.4897 15.4998 18.0962C15.5746 18.3426 15.5283 18.6036 15.3743 18.81C15.2204 19.0166 14.9828 19.135 14.7252 19.135H1.67506C1.4173 19.135 1.17973 19.0165 1.02559 18.81C0.871574 18.6036 0.825293 18.343 0.899985 18.0963L1.69304 18.3154ZM1.69304 18.3154C1.77574 18.0673 2.00496 17.9018 2.27048 17.9018H2.41114C2.63749 17.9018 2.8223 17.7189 2.8223 17.492C2.8223 17.2652 2.63749 17.0823 2.41114 17.0823H2.27048C1.63512 17.0823 1.08342 17.4898 0.899998 18.0962L1.69304 18.3154Z" fill="#7B7F8F" stroke="#7B7F8F" stroke-width="0.27"/>
<path d="M2.10457 3.19162L2.10426 3.19127L2.10426 3.19126C2.02673 3.10435 1.98904 2.98844 2.00279 2.87144L2.00278 2.87158L2.13686 2.88708L2.00281 2.87127L2.19276 1.22792C2.19276 1.22789 2.19277 1.22786 2.19277 1.22783L2.19278 1.22776L2.32688 1.24326C2.34272 1.10478 2.46055 1 2.60084 1H13.4876C13.6243 1 13.7406 1.09965 13.7609 1.2341L2.10457 3.19162ZM2.10457 3.19162C2.18283 3.27873 2.29409 3.32835 2.41121 3.32835H13.734C13.8535 3.32835 13.9671 3.27675 14.0453 3.18604M2.10457 3.19162L14.0453 3.18604M14.0453 3.18604C14.0453 3.18594 14.0454 3.18584 14.0455 3.18575L13.9431 3.09774L14.0453 3.18604ZM13.2572 2.50882H2.87236L2.9675 1.68453H13.1335L13.2572 2.50882Z" fill="#7B7F8F" stroke="#7B7F8F" stroke-width="0.27"/>
<path d="M4.92582 4.23873H5.07937C5.30609 4.23873 5.49054 4.0562 5.49054 3.82896C5.49054 3.60209 5.30572 3.4192 5.07937 3.4192H4.92582C4.69947 3.4192 4.51466 3.60209 4.51466 3.82896C4.51466 4.05584 4.69947 4.23873 4.92582 4.23873Z" fill="#7B7F8F" stroke="#7B7F8F" stroke-width="0.27"/>
<path d="M7.36454 4.23873H7.51809C7.74433 4.23873 7.92926 4.05632 7.92926 3.82896C7.92926 3.60209 7.74445 3.4192 7.51809 3.4192H7.36454C7.13819 3.4192 6.95338 3.60209 6.95338 3.82896C6.95338 4.05584 7.13819 4.23873 7.36454 4.23873Z" fill="#7B7F8F" stroke="#7B7F8F" stroke-width="0.27"/>
<path d="M9.80278 4.23873H9.95632C10.1826 4.23873 10.3675 4.05632 10.3675 3.82896C10.3675 3.60209 10.1827 3.4192 9.95632 3.4192H9.80278C9.57642 3.4192 9.39161 3.60209 9.39161 3.82896C9.39161 4.05584 9.57642 4.23873 9.80278 4.23873Z" fill="#7B7F8F" stroke="#7B7F8F" stroke-width="0.27"/>
<path d="M12.2413 4.23873H12.3948C12.621 4.23873 12.806 4.05632 12.806 3.82896C12.806 3.60209 12.6212 3.4192 12.3948 3.4192H12.2413C12.0149 3.4192 11.8301 3.60209 11.8301 3.82896C11.8301 4.05584 12.0149 4.23873 12.2413 4.23873Z" fill="#7B7F8F" stroke="#7B7F8F" stroke-width="0.27"/>
</svg>
