<svg width="20" height="20" viewBox="0 0 20 20" fill="none" xmlns="http://www.w3.org/2000/svg">
<path d="M19.6024 5.65808L19.7179 5.70595L19.6024 5.65809L17.3555 11.0786L17.4709 11.1265L17.3554 11.0787C17.2846 11.2496 17.1102 11.3791 16.8943 11.4043L16.8943 11.4043L15.3611 11.5832L14.9769 11.6281L15.3147 11.8166L16.5123 12.4846C17.3311 12.9414 17.552 13.728 17.3388 14.4002C17.1247 15.0749 16.4686 15.6457 15.4988 15.6457H5.31195C4.98419 15.6457 4.74146 15.4094 4.74146 15.1447C4.74146 14.8801 4.98418 14.6438 5.31195 14.6438H15.4989C15.8794 14.6438 16.1526 14.4171 16.2425 14.1332C16.3331 13.8467 16.2322 13.5149 15.9013 13.3304L13.2532 11.8531L13.2179 11.8334L13.1778 11.8381L5.29691 12.7579C4.96997 12.7961 4.69214 12.5867 4.65559 12.3213L4.65534 12.3197L3.05207 1.70025L3.03901 1.61373L2.95324 1.59639L0.56797 1.11422L0.567963 1.11422C0.251011 1.05017 0.0742335 0.775926 0.138344 0.519094L0.138347 0.519083C0.203826 0.256662 0.50343 0.0733437 0.823277 0.137819C0.823295 0.137822 0.823314 0.137826 0.823333 0.13783L3.68013 0.715326C3.91918 0.763654 4.08771 0.937391 4.118 1.13782L4.68374 4.87989L4.69981 4.98621H4.80733H19.0663C19.4829 4.98621 19.7301 5.35019 19.6024 5.65808ZM5.70222 11.5768L5.71893 11.6981L5.84054 11.6839L16.3287 10.4597L16.4016 10.4512L16.4297 10.3834L18.18 6.16099L18.2516 5.98813H18.0645H5.07562H4.93221L4.95179 6.13019L5.70222 11.5768Z" fill="white" stroke="white" stroke-width="0.25"/>
<path d="M4.99756 18.2449C4.99756 17.3582 5.80372 16.6147 6.82271 16.6147C7.8417 16.6147 8.64786 17.3582 8.64786 18.2449C8.64786 19.1315 7.8417 19.875 6.82271 19.875C5.80372 19.875 4.99756 19.1315 4.99756 18.2449ZM6.13854 18.2449C6.13854 18.6035 6.45808 18.8731 6.82271 18.8731C7.18734 18.8731 7.50688 18.6035 7.50688 18.2449C7.50688 17.8863 7.18735 17.6167 6.82271 17.6167C6.45808 17.6167 6.13854 17.8863 6.13854 18.2449Z" fill="white" stroke="white" stroke-width="0.25"/>
<path d="M11.7109 18.2449C11.7109 17.3582 12.5171 16.6147 13.5361 16.6147C14.5551 16.6147 15.3612 17.3582 15.3612 18.2449C15.3612 19.1315 14.5551 19.875 13.5361 19.875C12.5171 19.875 11.7109 19.1315 11.7109 18.2449ZM12.8519 18.2449C12.8519 18.6035 13.1714 18.8731 13.5361 18.8731C13.9008 18.8731 14.2202 18.6035 14.2202 18.2449C14.2202 17.8863 13.9007 17.6167 13.5361 17.6167C13.1714 17.6167 12.8519 17.8863 12.8519 18.2449Z" fill="white" stroke="white" stroke-width="0.25"/>
</svg>
