<svg width="18" height="22" viewBox="0 0 18 22" fill="none" xmlns="http://www.w3.org/2000/svg">
<path d="M17.4562 7.20553L17.4562 7.2055L15.7734 3.83998V1.58594C15.7734 1.19331 15.4551 0.875 15.0625 0.875H3.34375C2.95112 0.875 2.63281 1.19331 2.63281 1.58594V3.83998L0.950033 7.2055L0.950022 7.20553C0.900689 7.30424 0.875 7.41306 0.875 7.52344V19.2422C0.875 20.2805 1.71952 21.125 2.75781 21.125H15.6484C16.6867 21.125 17.5312 20.2805 17.5312 19.2422V7.52344C17.5312 7.41306 17.5056 7.30424 17.4562 7.20553ZM4.05469 2.29688H14.3516V3.29688H4.05469V2.29688ZM16.1094 19.2422C16.1094 19.4962 15.9025 19.7031 15.6484 19.7031H2.75781C2.50376 19.7031 2.29688 19.4962 2.29688 19.2422V7.69127L3.78315 4.71875H14.6231L16.1094 7.69127V19.2422Z" fill="white" stroke="white" stroke-width="0.25"/>
<path d="M12.7792 10.4022C12.7372 10.1574 12.5455 9.9657 12.3007 9.92371C11.5656 9.79769 11.0552 9.90305 10.6529 10.0227C10.6465 10.0246 10.6401 10.0267 10.6337 10.0288C10.0723 10.217 9.58362 10.5513 9.2221 11.0396C8.86374 10.5555 8.37678 10.2187 7.81042 10.0288C7.80405 10.0267 7.79768 10.0246 7.79128 10.0227C7.38901 9.90305 6.87866 9.79769 6.14342 9.92375C5.89866 9.9657 5.70694 10.1575 5.66495 10.4022C5.53889 11.1372 5.64424 11.6477 5.76393 12.05C5.76585 12.0565 5.76788 12.0629 5.76999 12.0693C5.91772 12.5098 6.15085 12.8927 6.46233 13.2066C7.03073 13.7811 7.81553 14.064 8.6171 14.066V15.1405C8.6171 15.4641 8.87944 15.7264 9.20303 15.7264C9.52663 15.7264 9.78897 15.4641 9.78897 15.1405V14.0659C9.79881 14.066 9.80885 14.0662 9.81862 14.0662C10.6199 14.0662 11.4103 13.7843 11.9812 13.2072C12.629 12.5542 12.9776 11.5592 12.7792 10.4022ZM8.6171 12.8943C8.12506 12.8923 7.64026 12.7309 7.29483 12.3818C6.94514 12.0294 6.77928 11.5413 6.77975 11.0386C7.27807 11.0365 7.76975 11.2032 8.12362 11.5543C8.42967 11.857 8.58784 12.2614 8.62698 12.692C8.61491 12.7586 8.6171 12.7904 8.6171 12.8943ZM11.1487 12.3824C10.7988 12.7362 10.304 12.8965 9.80839 12.8946C9.806 12.3989 9.9671 11.9039 10.3211 11.5537C10.6738 11.2038 11.1612 11.0386 11.6622 11.0386C11.663 11.0386 11.6637 11.0386 11.6644 11.0386C11.6649 11.5418 11.499 12.0294 11.1487 12.3824Z" fill="white"/>
</svg>
