<svg width="10" height="18" viewBox="0 0 10 18" fill="none" xmlns="http://www.w3.org/2000/svg">
<path d="M4.04762 10.5238V8.31775C4.04762 8.27114 4.01541 8.23071 3.96998 8.22028L2.10476 7.79238C1.44952 7.60571 1 7.00762 1 6.32571C1 6.32571 1 6.32571 1 6.32571C1 6.32571 1 5.57143 1 5.19048C1 4.43369 1.30444 2.12466 1.30853 2.09365C1.30866 2.09268 1.30862 2.09285 1.30872 2.09188C1.35487 1.64677 1.62139 1.25883 2.02095 1.06095L2.07839 1.03223C2.11689 1.01298 2.16369 1.02028 2.19239 1.05236C2.40516 1.29018 2.52381 1.59919 2.52381 1.9181V4.42857C2.52381 4.84762 2.86667 5.19048 3.28571 5.19048C3.70476 5.19048 4.04762 4.84762 4.04762 4.42857V2.23429C4.04762 1.72892 4.32265 1.26285 4.7655 1.02284C4.79297 1.00795 4.82608 1.00795 4.85355 1.02284C5.2964 1.26285 5.57143 1.72892 5.57143 2.23429V4.42857C5.57143 4.84762 5.91429 5.19048 6.33333 5.19048C6.75238 5.19048 7.09524 4.84762 7.09524 4.42857V1.9181C7.09524 1.59566 7.21388 1.28971 7.42663 1.05234C7.45536 1.02028 7.50216 1.01298 7.54066 1.03223L7.5981 1.06095C7.99767 1.25884 8.26419 1.65059 8.31033 2.09192C8.31043 2.09286 8.31039 2.09269 8.31052 2.09363C8.31449 2.12372 8.61905 4.43354 8.61905 5.19048C8.61905 5.57143 8.61905 6.32571 8.61905 6.32571C8.61905 6.32571 8.61905 6.32571 8.61905 6.32571C8.61905 7.00762 8.16952 7.60571 7.51429 7.79238L5.64907 8.22028C5.60363 8.23071 5.57143 8.27114 5.57143 8.31775V10.5238" stroke="#686B91" stroke-miterlimit="10" stroke-linejoin="round"/>
<path d="M3.66663 10.1428V15.8571C3.66663 16.4895 4.1771 17 4.80948 17C5.44186 17 5.95234 16.4895 5.95234 15.8571V10.1428" stroke="#686B91" stroke-miterlimit="10" stroke-linejoin="round"/>
</svg>
